<mxfile modified="2020-04-10T14:33:11.475Z" host="app.diagrams.net" agent="5.0 (Windows NT 6.1; Win64; x64) AppleWebKit/537.36 (KHTML, like Gecko) Chrome/80.0.3987.163 Safari/537.36" etag="I5x2cuI2KmPZwwwdpzO3" version="12.9.10" type="github" pages="2">
  <diagram name="2019年度" id="75ae5057-2f1f-a65a-41a6-c58fb5237df7">
    <mxGraphModel dx="1240" dy="689" grid="1" gridSize="10" guides="1" tooltips="1" connect="1" arrows="1" fold="1" page="1" pageScale="1" pageWidth="1100" pageHeight="850" background="#ffffff" math="0" shadow="0">
      <root>
        <mxCell id="0" />
        <mxCell id="1" parent="0" />
        <mxCell id="6d17579d09794128-4" value="" style="rounded=1;arcSize=4;dashed=0;strokeColor=#000000;fillColor=none;gradientColor=none;strokeWidth=2;shadow=0;comic=0;fontFamily=Verdana;fontSize=12;fontColor=#000000;html=1;" parent="1" vertex="1">
          <mxGeometry x="182" y="22" width="868" height="648" as="geometry" />
        </mxCell>
        <mxCell id="PQJnVsP_SF2YNR21l9gZ-9" value="" style="rounded=1;arcSize=4;dashed=0;strokeColor=#000000;fillColor=none;gradientColor=none;strokeWidth=2;shadow=0;comic=0;fontFamily=Verdana;fontSize=12;fontColor=#000000;html=1;" parent="1" vertex="1">
          <mxGeometry x="360" y="200" width="370" height="340" as="geometry" />
        </mxCell>
        <mxCell id="6d17579d09794128-20" style="edgeStyle=orthogonalEdgeStyle;rounded=0;html=1;labelBackgroundColor=none;strokeWidth=1;fontFamily=Verdana;fontSize=12;exitX=1;exitY=0.5;exitDx=0;exitDy=0;exitPerimeter=0;" parent="1" source="PQJnVsP_SF2YNR21l9gZ-2" target="PQJnVsP_SF2YNR21l9gZ-1" edge="1">
          <mxGeometry relative="1" as="geometry">
            <Array as="points" />
            <mxPoint x="141" y="299" as="sourcePoint" />
            <mxPoint x="250" y="299" as="targetPoint" />
          </mxGeometry>
        </mxCell>
        <mxCell id="6d17579d09794128-5" value="" style="dashed=0;html=1;shape=mxgraph.aws3.cloud;fillColor=#F58536;gradientColor=none;dashed=0;rounded=1;shadow=0;comic=0;strokeColor=#E6E6E6;strokeWidth=6;fontFamily=Verdana;fontSize=12;fontColor=#000000;" parent="1" vertex="1">
          <mxGeometry x="208.5" y="12" width="52" height="36" as="geometry" />
        </mxCell>
        <mxCell id="6d17579d09794128-23" style="edgeStyle=orthogonalEdgeStyle;rounded=0;html=1;labelBackgroundColor=none;strokeWidth=1;fontFamily=Verdana;fontSize=12;" parent="1" source="PQJnVsP_SF2YNR21l9gZ-1" target="6d17579d09794128-7" edge="1">
          <mxGeometry relative="1" as="geometry">
            <mxPoint x="320.5" y="299" as="sourcePoint" />
          </mxGeometry>
        </mxCell>
        <mxCell id="6d17579d09794128-25" style="edgeStyle=orthogonalEdgeStyle;rounded=0;html=1;labelBackgroundColor=none;strokeWidth=1;fontFamily=Verdana;fontSize=12;entryX=0;entryY=0.5;entryDx=0;entryDy=0;entryPerimeter=0;" parent="1" target="6d17579d09794128-10" edge="1">
          <mxGeometry relative="1" as="geometry">
            <mxPoint x="500" y="299" as="sourcePoint" />
            <mxPoint x="580" y="310" as="targetPoint" />
            <Array as="points">
              <mxPoint x="500" y="300" />
            </Array>
          </mxGeometry>
        </mxCell>
        <mxCell id="6d17579d09794128-7" value="" style="dashed=0;html=1;shape=mxgraph.aws3.elastic_load_balancing;fillColor=#F58536;gradientColor=none;rounded=1;shadow=0;comic=0;strokeColor=#E6E6E6;strokeWidth=6;fontFamily=Verdana;fontSize=12;fontColor=#000000;" parent="1" vertex="1">
          <mxGeometry x="417.5" y="253.5" width="76.5" height="93" as="geometry" />
        </mxCell>
        <mxCell id="6d17579d09794128-10" value="" style="dashed=0;html=1;shape=mxgraph.aws3.rds;fillColor=#2E73B8;gradientColor=none;rounded=1;shadow=0;comic=0;strokeColor=#E6E6E6;strokeWidth=6;fontFamily=Verdana;fontSize=12;fontColor=#000000;" parent="1" vertex="1">
          <mxGeometry x="600" y="259.5" width="72" height="81" as="geometry" />
        </mxCell>
        <mxCell id="6d17579d09794128-16" value="" style="dashed=0;html=1;shape=mxgraph.aws3.cloudfront;fillColor=#F58536;gradientColor=none;rounded=1;shadow=0;comic=0;strokeColor=#E6E6E6;strokeWidth=6;fontFamily=Verdana;fontSize=12;fontColor=#000000;" parent="1" vertex="1">
          <mxGeometry x="250" y="77" width="76.5" height="93" as="geometry" />
        </mxCell>
        <mxCell id="PQJnVsP_SF2YNR21l9gZ-1" value="" style="outlineConnect=0;dashed=0;verticalLabelPosition=bottom;verticalAlign=top;align=center;html=1;shape=mxgraph.aws3.api_gateway;fillColor=#D9A741;gradientColor=none;" parent="1" vertex="1">
          <mxGeometry x="250" y="253.5" width="76.5" height="93" as="geometry" />
        </mxCell>
        <mxCell id="PQJnVsP_SF2YNR21l9gZ-2" value="" style="outlineConnect=0;dashed=0;verticalLabelPosition=bottom;verticalAlign=top;align=center;html=1;shape=mxgraph.aws3.mobile_client;fillColor=#D2D3D3;gradientColor=none;" parent="1" vertex="1">
          <mxGeometry x="90" y="268.5" width="40.5" height="63" as="geometry" />
        </mxCell>
        <mxCell id="PQJnVsP_SF2YNR21l9gZ-3" value="" style="outlineConnect=0;dashed=0;verticalLabelPosition=bottom;verticalAlign=top;align=center;html=1;shape=mxgraph.aws3.virtual_private_cloud;fillColor=#F58534;gradientColor=none;" parent="1" vertex="1">
          <mxGeometry x="378" y="170" width="79.5" height="54" as="geometry" />
        </mxCell>
        <mxCell id="PQJnVsP_SF2YNR21l9gZ-4" value="API Gateway" style="text;html=1;resizable=0;autosize=1;align=center;verticalAlign=middle;points=[];fillColor=none;strokeColor=none;rounded=0;" parent="1" vertex="1">
          <mxGeometry x="259" y="364" width="90" height="20" as="geometry" />
        </mxCell>
        <mxCell id="PQJnVsP_SF2YNR21l9gZ-7" value="AWS Lambda" style="text;html=1;resizable=0;autosize=1;align=center;verticalAlign=middle;points=[];fillColor=none;strokeColor=none;rounded=0;" parent="1" vertex="1">
          <mxGeometry x="373.5" y="364" width="90" height="20" as="geometry" />
        </mxCell>
        <mxCell id="PQJnVsP_SF2YNR21l9gZ-8" value="amazon Aurora" style="text;html=1;resizable=0;autosize=1;align=center;verticalAlign=middle;points=[];fillColor=none;strokeColor=none;rounded=0;" parent="1" vertex="1">
          <mxGeometry x="594" y="364" width="100" height="20" as="geometry" />
        </mxCell>
        <mxCell id="PQJnVsP_SF2YNR21l9gZ-15" style="edgeStyle=orthogonalEdgeStyle;rounded=0;html=1;labelBackgroundColor=none;strokeWidth=1;fontFamily=Verdana;fontSize=12;" parent="1" source="6d17579d09794128-7" target="PQJnVsP_SF2YNR21l9gZ-17" edge="1">
          <mxGeometry relative="1" as="geometry">
            <mxPoint x="510" y="309" as="sourcePoint" />
            <mxPoint x="560" y="320" as="targetPoint" />
            <Array as="points">
              <mxPoint x="550" y="300" />
              <mxPoint x="550" y="441" />
            </Array>
          </mxGeometry>
        </mxCell>
        <mxCell id="PQJnVsP_SF2YNR21l9gZ-17" value="" style="outlineConnect=0;dashed=0;verticalLabelPosition=bottom;verticalAlign=top;align=center;html=1;shape=mxgraph.aws3.dynamo_db;fillColor=#2E73B8;gradientColor=none;" parent="1" vertex="1">
          <mxGeometry x="600" y="400" width="72" height="81" as="geometry" />
        </mxCell>
        <mxCell id="PQJnVsP_SF2YNR21l9gZ-18" value="amazon Dynamo" style="text;html=1;resizable=0;autosize=1;align=center;verticalAlign=middle;points=[];fillColor=none;strokeColor=none;rounded=0;" parent="1" vertex="1">
          <mxGeometry x="600" y="490" width="110" height="20" as="geometry" />
        </mxCell>
        <mxCell id="PQJnVsP_SF2YNR21l9gZ-19" style="edgeStyle=orthogonalEdgeStyle;rounded=0;html=1;labelBackgroundColor=none;strokeWidth=1;fontFamily=Verdana;fontSize=12;" parent="1" target="PQJnVsP_SF2YNR21l9gZ-20" edge="1">
          <mxGeometry relative="1" as="geometry">
            <mxPoint x="503" y="299.5" as="sourcePoint" />
            <mxPoint x="609" y="440.5" as="targetPoint" />
            <Array as="points">
              <mxPoint x="550" y="300" />
              <mxPoint x="550" y="591" />
            </Array>
          </mxGeometry>
        </mxCell>
        <mxCell id="PQJnVsP_SF2YNR21l9gZ-20" value="" style="outlineConnect=0;dashed=0;verticalLabelPosition=bottom;verticalAlign=top;align=center;html=1;shape=mxgraph.aws3.bucket;fillColor=#E05243;gradientColor=none;" parent="1" vertex="1">
          <mxGeometry x="606" y="560.25" width="60" height="61.5" as="geometry" />
        </mxCell>
        <mxCell id="PQJnVsP_SF2YNR21l9gZ-21" value="amazon S3" style="text;html=1;resizable=0;autosize=1;align=center;verticalAlign=middle;points=[];fillColor=none;strokeColor=none;rounded=0;" parent="1" vertex="1">
          <mxGeometry x="600" y="630" width="80" height="20" as="geometry" />
        </mxCell>
        <mxCell id="PQJnVsP_SF2YNR21l9gZ-23" style="edgeStyle=orthogonalEdgeStyle;rounded=0;html=1;labelBackgroundColor=none;strokeWidth=1;fontFamily=Verdana;fontSize=12;entryX=0;entryY=0.5;entryDx=0;entryDy=0;entryPerimeter=0;" parent="1" source="PQJnVsP_SF2YNR21l9gZ-2" target="6d17579d09794128-16" edge="1">
          <mxGeometry relative="1" as="geometry">
            <Array as="points">
              <mxPoint x="210" y="300" />
              <mxPoint x="210" y="124" />
            </Array>
            <mxPoint x="141" y="310" as="sourcePoint" />
            <mxPoint x="250" y="118" as="targetPoint" />
          </mxGeometry>
        </mxCell>
        <mxCell id="PQJnVsP_SF2YNR21l9gZ-24" value="Cloud Front" style="text;html=1;resizable=0;autosize=1;align=center;verticalAlign=middle;points=[];fillColor=none;strokeColor=none;rounded=0;" parent="1" vertex="1">
          <mxGeometry x="250" y="173" width="80" height="20" as="geometry" />
        </mxCell>
        <mxCell id="PQJnVsP_SF2YNR21l9gZ-25" value="" style="outlineConnect=0;dashed=0;verticalLabelPosition=bottom;verticalAlign=top;align=center;html=1;shape=mxgraph.aws3.bucket;fillColor=#E05243;gradientColor=none;" parent="1" vertex="1">
          <mxGeometry x="604.5" y="92.75" width="60" height="61.5" as="geometry" />
        </mxCell>
        <mxCell id="PQJnVsP_SF2YNR21l9gZ-26" style="edgeStyle=orthogonalEdgeStyle;rounded=0;html=1;labelBackgroundColor=none;strokeWidth=1;fontFamily=Verdana;fontSize=12;" parent="1" source="6d17579d09794128-16" target="PQJnVsP_SF2YNR21l9gZ-25" edge="1">
          <mxGeometry relative="1" as="geometry">
            <mxPoint x="336.5" y="310" as="sourcePoint" />
            <mxPoint x="427.5" y="310" as="targetPoint" />
            <Array as="points">
              <mxPoint x="380" y="124" />
              <mxPoint x="380" y="124" />
            </Array>
          </mxGeometry>
        </mxCell>
        <mxCell id="PQJnVsP_SF2YNR21l9gZ-27" value="amazon S3" style="text;html=1;resizable=0;autosize=1;align=center;verticalAlign=middle;points=[];fillColor=none;strokeColor=none;rounded=0;" parent="1" vertex="1">
          <mxGeometry x="594.5" y="162.88888549804688" width="80" height="20" as="geometry" />
        </mxCell>
        <mxCell id="PQJnVsP_SF2YNR21l9gZ-28" value="" style="outlineConnect=0;dashed=0;verticalLabelPosition=bottom;verticalAlign=top;align=center;html=1;shape=mxgraph.aws3.cloudwatch;fillColor=#759C3E;gradientColor=none;" parent="1" vertex="1">
          <mxGeometry x="877" y="80" width="82.5" height="93" as="geometry" />
        </mxCell>
        <mxCell id="PQJnVsP_SF2YNR21l9gZ-29" value="Cloud Watch" style="text;html=1;resizable=0;autosize=1;align=center;verticalAlign=middle;points=[];fillColor=none;strokeColor=none;rounded=0;" parent="1" vertex="1">
          <mxGeometry x="879.5" y="176.88888549804688" width="80" height="20" as="geometry" />
        </mxCell>
        <mxCell id="PQJnVsP_SF2YNR21l9gZ-30" value="静的な画面はＤＢ参照させる必要がないため、CloudFrontとS3で画面表示する。" style="shape=callout;whiteSpace=wrap;html=1;perimeter=calloutPerimeter;position2=0.96;" parent="1" vertex="1">
          <mxGeometry x="80" y="54" width="120" height="92" as="geometry" />
        </mxCell>
        <mxCell id="PQJnVsP_SF2YNR21l9gZ-31" value="サーバの必要はないため、APIGatewayとAWSLambdaの構成にする。&lt;br&gt;Lambdaでもアプリの載せることが可能であり、サーバの必要はない。&lt;br&gt;" style="shape=callout;whiteSpace=wrap;html=1;perimeter=calloutPerimeter;position2=0.97;size=31;position=0.79;base=15;" parent="1" vertex="1">
          <mxGeometry x="40" y="141" width="120" height="149" as="geometry" />
        </mxCell>
        <mxCell id="PQJnVsP_SF2YNR21l9gZ-33" value="お客様口座Ｆをモデルにお客様情報を格納する。&lt;br&gt;業務情報が多いため、Cognitoは使用しない。&lt;br&gt;" style="shape=callout;whiteSpace=wrap;html=1;perimeter=calloutPerimeter;position2=0;size=32;position=0.13;base=15;" parent="1" vertex="1">
          <mxGeometry x="700" y="130" width="120" height="149" as="geometry" />
        </mxCell>
        <mxCell id="PQJnVsP_SF2YNR21l9gZ-34" value="セッション情報は高速なアクセスが必要なため、Dynamoを使用する。" style="shape=callout;whiteSpace=wrap;html=1;perimeter=calloutPerimeter;position2=0;size=32;position=0.13;base=15;" parent="1" vertex="1">
          <mxGeometry x="700" y="300" width="120" height="149" as="geometry" />
        </mxCell>
        <mxCell id="PQJnVsP_SF2YNR21l9gZ-35" value="S3でログ管理を行う。&lt;br&gt;データレイクとして使用する。&lt;br&gt;" style="shape=callout;whiteSpace=wrap;html=1;perimeter=calloutPerimeter;position2=0;size=32;position=0.13;base=15;" parent="1" vertex="1">
          <mxGeometry x="710" y="470" width="120" height="110" as="geometry" />
        </mxCell>
        <mxCell id="PQJnVsP_SF2YNR21l9gZ-36" value="ログの監視を行う。" style="shape=callout;whiteSpace=wrap;html=1;perimeter=calloutPerimeter;position2=0;size=32;position=0.13;base=15;" parent="1" vertex="1">
          <mxGeometry x="970" y="42.5" width="120" height="81" as="geometry" />
        </mxCell>
      </root>
    </mxGraphModel>
  </diagram>
  <diagram name="2020年度" id="ZaH7NymEXUGhFxv1oeSC">
    <mxGraphModel dx="1447" dy="722" grid="1" gridSize="10" guides="1" tooltips="1" connect="1" arrows="1" fold="1" page="1" pageScale="1" pageWidth="1100" pageHeight="850" background="#ffffff" math="0" shadow="0">
      <root>
        <mxCell id="c9L9A2oVvK1UvMmjNTB7-0" />
        <mxCell id="c9L9A2oVvK1UvMmjNTB7-1" parent="c9L9A2oVvK1UvMmjNTB7-0" />
        <mxCell id="c9L9A2oVvK1UvMmjNTB7-2" value="" style="rounded=1;arcSize=4;dashed=0;strokeColor=#000000;fillColor=none;gradientColor=none;strokeWidth=2;shadow=0;comic=0;fontFamily=Verdana;fontSize=12;fontColor=#000000;html=1;" vertex="1" parent="c9L9A2oVvK1UvMmjNTB7-1">
          <mxGeometry x="110" y="12" width="770" height="648" as="geometry" />
        </mxCell>
        <mxCell id="c9L9A2oVvK1UvMmjNTB7-3" value="" style="rounded=1;arcSize=4;dashed=0;strokeColor=#000000;fillColor=none;gradientColor=none;strokeWidth=2;shadow=0;comic=0;fontFamily=Verdana;fontSize=12;fontColor=#000000;html=1;" vertex="1" parent="c9L9A2oVvK1UvMmjNTB7-1">
          <mxGeometry x="360" y="200" width="470" height="340" as="geometry" />
        </mxCell>
        <mxCell id="c9L9A2oVvK1UvMmjNTB7-4" style="edgeStyle=orthogonalEdgeStyle;rounded=0;html=1;labelBackgroundColor=none;strokeWidth=1;fontFamily=Verdana;fontSize=12;exitX=1;exitY=0.5;exitDx=0;exitDy=0;exitPerimeter=0;entryX=0;entryY=0.5;entryDx=0;entryDy=0;entryPerimeter=0;" edge="1" parent="c9L9A2oVvK1UvMmjNTB7-1" source="4PSMBNqFyeV-23smEcSd-7" target="c9L9A2oVvK1UvMmjNTB7-8">
          <mxGeometry relative="1" as="geometry">
            <Array as="points" />
            <mxPoint x="141" y="299" as="sourcePoint" />
            <mxPoint x="260" y="300" as="targetPoint" />
          </mxGeometry>
        </mxCell>
        <mxCell id="c9L9A2oVvK1UvMmjNTB7-5" value="" style="dashed=0;html=1;shape=mxgraph.aws3.cloud;fillColor=#F58536;gradientColor=none;dashed=0;rounded=1;shadow=0;comic=0;strokeColor=#E6E6E6;strokeWidth=6;fontFamily=Verdana;fontSize=12;fontColor=#000000;" vertex="1" parent="c9L9A2oVvK1UvMmjNTB7-1">
          <mxGeometry x="90" y="12" width="52" height="36" as="geometry" />
        </mxCell>
        <mxCell id="c9L9A2oVvK1UvMmjNTB7-6" style="edgeStyle=orthogonalEdgeStyle;rounded=0;html=1;labelBackgroundColor=none;strokeWidth=1;fontFamily=Verdana;fontSize=12;" edge="1" parent="c9L9A2oVvK1UvMmjNTB7-1" source="4PSMBNqFyeV-23smEcSd-3" target="c9L9A2oVvK1UvMmjNTB7-8">
          <mxGeometry relative="1" as="geometry">
            <mxPoint x="326.5" y="300" as="sourcePoint" />
            <Array as="points">
              <mxPoint x="456" y="440" />
            </Array>
          </mxGeometry>
        </mxCell>
        <mxCell id="c9L9A2oVvK1UvMmjNTB7-8" value="" style="dashed=0;html=1;shape=mxgraph.aws3.elastic_load_balancing;fillColor=#F58536;gradientColor=none;rounded=1;shadow=0;comic=0;strokeColor=#E6E6E6;strokeWidth=6;fontFamily=Verdana;fontSize=12;fontColor=#000000;" vertex="1" parent="c9L9A2oVvK1UvMmjNTB7-1">
          <mxGeometry x="417.5" y="253.5" width="76.5" height="93" as="geometry" />
        </mxCell>
        <mxCell id="c9L9A2oVvK1UvMmjNTB7-12" value="" style="outlineConnect=0;dashed=0;verticalLabelPosition=bottom;verticalAlign=top;align=center;html=1;shape=mxgraph.aws3.mobile_client;fillColor=#D2D3D3;gradientColor=none;" vertex="1" parent="c9L9A2oVvK1UvMmjNTB7-1">
          <mxGeometry x="20" y="268.5" width="40.5" height="63" as="geometry" />
        </mxCell>
        <mxCell id="c9L9A2oVvK1UvMmjNTB7-13" value="" style="outlineConnect=0;dashed=0;verticalLabelPosition=bottom;verticalAlign=top;align=center;html=1;shape=mxgraph.aws3.virtual_private_cloud;fillColor=#F58534;gradientColor=none;" vertex="1" parent="c9L9A2oVvK1UvMmjNTB7-1">
          <mxGeometry x="378" y="170" width="79.5" height="54" as="geometry" />
        </mxCell>
        <mxCell id="c9L9A2oVvK1UvMmjNTB7-14" value="API Gateway" style="text;html=1;resizable=0;autosize=1;align=center;verticalAlign=middle;points=[];fillColor=none;strokeColor=none;rounded=0;fontSize=14;fontStyle=1" vertex="1" parent="c9L9A2oVvK1UvMmjNTB7-1">
          <mxGeometry x="231.5" y="520" width="100" height="20" as="geometry" />
        </mxCell>
        <mxCell id="c9L9A2oVvK1UvMmjNTB7-15" value="AWS Lambda" style="text;html=1;resizable=0;autosize=1;align=center;verticalAlign=middle;points=[];fillColor=none;strokeColor=none;rounded=0;fontStyle=1" vertex="1" parent="c9L9A2oVvK1UvMmjNTB7-1">
          <mxGeometry x="409.5" y="352" width="90" height="20" as="geometry" />
        </mxCell>
        <mxCell id="c9L9A2oVvK1UvMmjNTB7-18" value="" style="outlineConnect=0;dashed=0;verticalLabelPosition=bottom;verticalAlign=top;align=center;html=1;shape=mxgraph.aws3.dynamo_db;fillColor=#2E73B8;gradientColor=none;" vertex="1" parent="c9L9A2oVvK1UvMmjNTB7-1">
          <mxGeometry x="719" y="259.5" width="72" height="81" as="geometry" />
        </mxCell>
        <mxCell id="c9L9A2oVvK1UvMmjNTB7-19" value="amazon Dynamo" style="text;html=1;resizable=0;autosize=1;align=center;verticalAlign=middle;points=[];fillColor=none;strokeColor=none;rounded=0;fontSize=14;fontStyle=1" vertex="1" parent="c9L9A2oVvK1UvMmjNTB7-1">
          <mxGeometry x="690" y="352" width="130" height="20" as="geometry" />
        </mxCell>
        <mxCell id="c9L9A2oVvK1UvMmjNTB7-23" style="edgeStyle=orthogonalEdgeStyle;rounded=0;html=1;labelBackgroundColor=none;strokeWidth=1;fontFamily=Verdana;fontSize=12;entryX=0;entryY=0.5;entryDx=0;entryDy=0;entryPerimeter=0;" edge="1" parent="c9L9A2oVvK1UvMmjNTB7-1" source="4PSMBNqFyeV-23smEcSd-5">
          <mxGeometry relative="1" as="geometry">
            <Array as="points">
              <mxPoint x="210" y="300" />
              <mxPoint x="210" y="124" />
            </Array>
            <mxPoint x="141" y="310" as="sourcePoint" />
            <mxPoint x="250" y="123.49999999999989" as="targetPoint" />
          </mxGeometry>
        </mxCell>
        <mxCell id="c9L9A2oVvK1UvMmjNTB7-24" value="Cognito" style="text;html=1;resizable=0;autosize=1;align=center;verticalAlign=middle;points=[];fillColor=none;strokeColor=none;rounded=0;fontSize=14;fontStyle=1" vertex="1" parent="c9L9A2oVvK1UvMmjNTB7-1">
          <mxGeometry x="255" y="173" width="70" height="20" as="geometry" />
        </mxCell>
        <mxCell id="c9L9A2oVvK1UvMmjNTB7-28" value="" style="outlineConnect=0;dashed=0;verticalLabelPosition=bottom;verticalAlign=top;align=center;html=1;shape=mxgraph.aws3.cloudwatch;fillColor=#759C3E;gradientColor=none;" vertex="1" parent="c9L9A2oVvK1UvMmjNTB7-1">
          <mxGeometry x="760" y="60" width="82.5" height="93" as="geometry" />
        </mxCell>
        <mxCell id="c9L9A2oVvK1UvMmjNTB7-29" value="Cloud Watch" style="text;html=1;resizable=0;autosize=1;align=center;verticalAlign=middle;points=[];fillColor=none;strokeColor=none;rounded=0;fontStyle=1;fontSize=12;" vertex="1" parent="c9L9A2oVvK1UvMmjNTB7-1">
          <mxGeometry x="757.5" y="152.9988854980469" width="90" height="20" as="geometry" />
        </mxCell>
        <mxCell id="4PSMBNqFyeV-23smEcSd-0" value="" style="outlineConnect=0;dashed=0;verticalLabelPosition=bottom;verticalAlign=top;align=center;html=1;shape=mxgraph.aws3.cognito;fillColor=#AD688B;gradientColor=none;" vertex="1" parent="c9L9A2oVvK1UvMmjNTB7-1">
          <mxGeometry x="250" y="77" width="76.5" height="93" as="geometry" />
        </mxCell>
        <mxCell id="4PSMBNqFyeV-23smEcSd-3" value="" style="outlineConnect=0;dashed=0;verticalLabelPosition=bottom;verticalAlign=top;align=center;html=1;shape=mxgraph.aws3.api_gateway;fillColor=#D9A741;gradientColor=none;" vertex="1" parent="c9L9A2oVvK1UvMmjNTB7-1">
          <mxGeometry x="250" y="417" width="76.5" height="93" as="geometry" />
        </mxCell>
        <mxCell id="4PSMBNqFyeV-23smEcSd-4" style="edgeStyle=orthogonalEdgeStyle;rounded=0;html=1;labelBackgroundColor=none;strokeWidth=1;fontFamily=Verdana;fontSize=12;entryX=0;entryY=0.21;entryDx=0;entryDy=0;entryPerimeter=0;exitX=1;exitY=0.5;exitDx=0;exitDy=0;exitPerimeter=0;" edge="1" parent="c9L9A2oVvK1UvMmjNTB7-1" source="c9L9A2oVvK1UvMmjNTB7-12" target="4PSMBNqFyeV-23smEcSd-3">
          <mxGeometry relative="1" as="geometry">
            <Array as="points">
              <mxPoint x="210" y="300" />
              <mxPoint x="210" y="437" />
            </Array>
            <mxPoint x="90" y="340" as="sourcePoint" />
            <mxPoint x="260" y="133.4999999999999" as="targetPoint" />
          </mxGeometry>
        </mxCell>
        <mxCell id="4PSMBNqFyeV-23smEcSd-5" value="1" style="rounded=0;whiteSpace=wrap;html=1;fontSize=22;fontStyle=1" vertex="1" parent="c9L9A2oVvK1UvMmjNTB7-1">
          <mxGeometry x="190" y="210" width="40" height="40" as="geometry" />
        </mxCell>
        <mxCell id="4PSMBNqFyeV-23smEcSd-7" value="２" style="rounded=0;whiteSpace=wrap;html=1;fontSize=22;fontStyle=1" vertex="1" parent="c9L9A2oVvK1UvMmjNTB7-1">
          <mxGeometry x="261.5" y="280" width="40" height="40" as="geometry" />
        </mxCell>
        <mxCell id="4PSMBNqFyeV-23smEcSd-8" style="edgeStyle=orthogonalEdgeStyle;rounded=0;html=1;labelBackgroundColor=none;strokeWidth=1;fontFamily=Verdana;fontSize=12;exitX=1;exitY=0.5;exitDx=0;exitDy=0;exitPerimeter=0;entryX=0;entryY=0.5;entryDx=0;entryDy=0;entryPerimeter=0;" edge="1" parent="c9L9A2oVvK1UvMmjNTB7-1" source="c9L9A2oVvK1UvMmjNTB7-12" target="4PSMBNqFyeV-23smEcSd-7">
          <mxGeometry relative="1" as="geometry">
            <Array as="points" />
            <mxPoint x="60.49999999999977" y="300" as="sourcePoint" />
            <mxPoint x="417.5000000000002" y="300" as="targetPoint" />
          </mxGeometry>
        </mxCell>
        <mxCell id="4PSMBNqFyeV-23smEcSd-11" value="４" style="rounded=0;whiteSpace=wrap;html=1;fontSize=22;fontStyle=1" vertex="1" parent="c9L9A2oVvK1UvMmjNTB7-1">
          <mxGeometry x="190" y="342" width="40" height="40" as="geometry" />
        </mxCell>
        <mxCell id="4PSMBNqFyeV-23smEcSd-15" value="５" style="rounded=0;whiteSpace=wrap;html=1;fontSize=22;fontStyle=1" vertex="1" parent="c9L9A2oVvK1UvMmjNTB7-1">
          <mxGeometry x="435.75" y="425" width="40" height="40" as="geometry" />
        </mxCell>
        <mxCell id="4PSMBNqFyeV-23smEcSd-20" value="" style="shape=image;verticalLabelPosition=bottom;labelBackgroundColor=#ffffff;verticalAlign=top;aspect=fixed;imageAspect=0;image=data:image/png,iVBORw0KGgoAAAANSUhEUgAAAZAAAAGQCAYAAACAvzbMAAAs9klEQVR42u2dC3RU5bmwR0FA8AIKHk9PFzPBWNoiMxOiCRHoH1t7Ydli22VamklobBW1Vttqa9f57Qxb8Gg9vWq7tNrqsktXOWC1/kyYmQBtjssm4RKw0HKWgAokkHDJZWYSjGh1/+8XPIAmMTN7bvvyPGu9CwqSpPub7332+11dLoAUqHxJnzy3JX51eXPi1vKWxINlzYloeXN8h8Re+X2XxPF3o0v9mfo7+X2srCnx0OC/2Rj/tPoaPMncMv/F+6f4G0Kf9sdCt/qioYckYt5IcIf8utcbDXZ5I6HjgyG/H/yzwb8LRn3RZQ+qf1MS0672N2q0EwAYp2qnPk6S/zUSPxMZbBUZvF3WFNczCvU1muPb1NdUX3vhHn08TzozFkYeGi+J/xoRwM9EBNtEDm+LFPTMQr5GNLRVfU31tat2auN40gDwgei6fkbZpuQCEcaj5U3xnoyFMXr0yvd57Mqmvk+o700LpN5OJQ3aJyTRP+aLhHozF8ao0SNyenROLLiAdgKAIdXG3JbkDTLUtDsP0hg25HvvkZ/hRqqSUauNG2XoaU8epDFs+CLB3f6YdgNVCYDDqdyrT5CkfYdUHAcKJY4hImlKHCxvSt6pfjZa6N12atQm+GKhO0UcBwsljmFEckCqkjvUz0YLATiMiubk5yVhv2oWcQytSOKvidwWOb2dSqLaIknUr5lFHMPMl7zqa9A+T48CcABzWwY8MpkdNqs4hhnaqlc/s9PayR/VPFJx1JtXHEMqknDJn+9108MAbEp5U991sgoqbhV5nFq9JT9zc7zKOfIIVUnVEbeKPE5KRH7mkoh2HT0NwEao+QRZNvuw5cQxdBnwI3aeGxmc64gse8Rq4nh/yET/w8yNANghKbUmp8ow0CbLy+OURDYv2NY3zW7tVBK5b5rMJ2yxujxOVSOhTaWN2lR6IIBFubJpwC2Vxy7byOPUvMjusk0DRXZpJ2/DiiK1PNYu8jg1LxLaxbwIgCXl0XeZWhJrN3mcikRHRXP/bKu3U+n65bNl7qDDbvI4rRI56G3QLqNHAlgE9XYuQz2d9pXHyUrk0Pwt8RlWbacrNmgzJMkesqs8Tlvq26mqLHomgMlR8wOF3FFegErkFam2LrLesJV2kRxo+Ir95XFqB7ua56GHApiUL7TqEyWhbnGOPE5uOtz6me36JOvI4yeT1GGFTpHHaZXIltJWbSI9FcCElLfEn3CaPE5bnfWkZQQSDT3pPHmcnFh/gp4KYDLmtiQCjpXHKYksMb08YtoSp8rj5D6RSChAjwUwS+WxMXGpHIveh0Di/fO2JGeatZ0uj66YKSuu+p0uEKnA+vzrVlxKzwUwg0Ca442Ol8cpibxg2uojEnrB8fI4dexJIz0XoNDyaEosRhzvDTWcZ7Z2UsM2iOP9lYi2mB4MUCAqd+rn2HuzoPFNhvNe1s81SzvN++sD59p5s2AmmwzlzKxz6MkABRm6StyDLEZY2tuSWGGWdpK7xVcgjBEkElt2Dz0ZoCDVR17uLbdq9JqhChmsPvJzb7lVo4cqBCDv1Ufy+0hilGhJ3lXwuY9Y8C4kMVoVErqTHg2QJ6p26uOY+0hpX0jnwj36+EK108LIQ+MHz4FCEqPOhVTt1MbRswHyQFlz8osIItUVWX1fLtzch/ZlBJHi5sIG7Yv0bIC8DF/Fn0EOKe8Lea5wAgk9hxxSXdIbfIaeDZBjrm7Vz5fhqwHkkPKS3jcqX9In533uo1GbLEnxDeSQ8u70gdL1Pz6fHg6Q0+GrxBKkkO4wVrIu79VHLHQ9Ykgz5JwwejhAToevEr9HCmnuCWlKPJX/4avgU0gh3UMWg7+nhwPksgJpiu9HCmnfF9Ke73aSIZl2pJD2fSH76eEAuZKHuqoWIRiKiuZEcb7aaU5MK0YGBoOrbwFygyTBamRgsArZmKjJ3/CVVoMMDA5jxbRqejpAbuY/OPvKAmdjcfYVZ2MBmE8gLYmVyMDwrvRV+RNIcBUyMHxPyEp6OkBOKpD4VmRgOF7Km0AioZeQgeH9IFvp6QC5GcI6jAgMVyBd+Won2UDYhQwMn4t1mJ4OkJsK5HVkYHxHeh4Fwg50owKJBF+npwNkmSpdH4MEMoulrfpZuW6n0tZHz0IEmUWVvnoMPR4gi6gzsJBAZjF/R3xKrttp/ov3T0ECmQVnYgFkOzFJ8kMCmUXl5v6Lc91OVzRqFyOBTDcTahfR4wGySKWuj0UCCASBAIAh1EQwIkAgCAQAjAjkKCJAIAgEANIXSHP874gAgSAQADAikOcQAQJBIACQvkBa4j9GBAgEgQBA2pQ3Ja9HBAgEgQBA2lQ0989GBAgEgQBA2ui6fgYrsRAIAgEAg8NY8T8iAwSCQAAgfYE0J25FBggEgQBA2szbduxDcrfF2wgBgSAQAEgb2Q+yASEgEAQCAGkztyVZhxAQCAIBgPSHsV7Wz5XJ9CRSQCAIBADSr0Ka4g8gBQSCQAAgbVQy5Hh3BIJAAMAQ5c3J3yAGBIJAACD9uRBZ0itzIX3IAYEgEAAwUoV8HzkgEAQCAGmztFU/S3an/w+CQCAIBADSpmxTckF5U+KfSAKBIBAAMDCUlQghCQSCQAAgbTRdP7O8Of5nRIFAEAgApM2C1mP/KhI5gCwQCAIBgLSZt7lvlizt7UEYCASBAEDayGGL86QSeR1pIBAEAgBpI8ecXCMrswYQBwJBIACQNuUbk/MlcfYiDwSCQAAgba5s6ruMiXUEgkAAwBAVza//m9xi+AICQSAIBADSpkrXx8hmw+VOvk8dgSAQAMhoXqTvKhHJbgSCQBAIAKTNwj36+Lkt8btlWOsYAkEgCAQA0mZ+68B0GdJ6Upb7voVAEAgCAQBDIpnbnPiV3TcfIhAEAgA5orI1OVUqkm/LHMlGBIJAEAgAGKKiOVEsFcm/S6y3y1wJAkEgAJBnqnbq49Su9vKm5J1yUONjIpT/lqNSOqRaeQeBIBAEAgBpM3gHyUb9PLVRcd6W5Mzyjf1eM0elro9FIAgEAMCUIBAEAgCAQBAIAAACQSAAAAgEgQAAIBACgQAAIBAEAgCAQBAIAAACQSAAAAgEgQAAIBACgQAAIBAEAgCAQBAIAAACQSAAAAgEgQAAIBACgQAAIBAEAgCAQBAIAAACQSAAAAgEgQAAIBACgQAAIBAEAgCAQBAIAAACQSAAAAgEgQAAIBACgUDe0XT9zHkv6+cu2NY3jbBGXN2qn6/aDYEgAQSSGVX66jH+Rm3yvL8+cK6ma2dihGGY3zowfW5L/CvlzYlgeVPiqbLmxGaJzrLmeL/8+k5ZU1wnLBjN8WPSpofKm+Nby1sSK+X391Q0J6olihEIgUBOMGf9io95Y9oSbyx0rzcafMYbDW33RUOHfZHg6+95HtHgO75osN8bCXXK32+W3z/li4WCvpj2ldL12nTHCKNyp36OSiSSWB6XRPMqydZ5IW3frl4WypuS18tn4QIEQjhFIOUb/uNfRAA3+SKh/5L/n4ey98xCr/piwcf9Ma26slE7x17S0PWxZU2Ja9SbqHozJYkSpyqVxHGRyfPlTX3XLdyjj0cghN0E4m34ySRfVKsRccSksvhnrp+dyOmYVCgr/bHQNSKTsZZ9cF9o1SfK0MV3JFG0kSyJ0SNxRIYz7658SZ+MQBCI9cWhXeSNLPsPSebxgj3HaLBNRPKd0lZtomUe3Ge265PmNiV+JAnhKEmRMDDElZjbFH9g/o74FASCQKzY/r7Isl8NmccoYEhVclRE9iNVDZl7jE+GIqg4iCxVJEfLmpPf1HX9DASCQEw/VC/DRTJM9T2JhGmfq1QkJRHtOtM9vCtb45fIm+N6kh6R/YoksbFsU78PgSAQs+Jv0K6Ut/y/W+b5RoPrSyMrLjFJ1ZFYXN4UT5LsiBxWI2+ISG5FIAjETKj9Gf5I6O58TI7nIJLeqLa4YA+volk/Wzr3b0luRB7nR541+yQ7AnGGQAbbORraYPlnHQ3+tqL552fn9eGpXceDm/5IakT+q5GXr2wacCMQBFIofLHls0Qe7XZ53mpzYknkvml5eXhzWwY80ol3kciIglUiTYmDFc39sxEIAsn7fMe64Dz5GXvs9sxlDmeXP6p5cjtZ3tR3mcijgyRGmCB657Yk5yEQBJI3ecjmPDMtz81+JRLskGd/WY7kMeBWb34kLsJEZ27Fyzf2exEIAsk1c2LBBTJsNWD3Zy/DWQdL/nxvdoeIK1uTUxm2Ikw6J9KhhlURCALJFaXrl8+WIZ5epzx/NZxV2qhNzY489uoTZAnlJhIVYWKJ7DLLznUEYi+BlEe0D6u3cqe1gfx/3iSbIydk/ABltdUjJCjCAkt8/4RAEEg2UXdySCJ90antIEeyPJKhPOJVJCfCKiFnsN2OQBBIthi8p8PhbeGPhqqMyWPTQJGapCQxEVY6Hr6i+VgJAkEgmVISDX1K7tl42+ltMXiacMOKovTH/poTEZISYcGhrNZCXquLQKwvEDX2ry5poi1OXlgVSU8eG5PXkowIyw5ltcRvRiAIxPBO80gwRDu8bygrFro25TOu5C1uL4mIsPAJvt2f2pS8EIEgkLQ3C8pubDtvFsxgVdbelM7MkjsYfkASIixfhTQnfo5AEEja1Uc09DRtMOKE+g8+8OGpe6llIrKTBETYYJd6fyGqEARiXYGoyWKLHs2er7mQzoWRh8Z/0LLdm0g+hI2W9WoIBIGkPvex7BGe/6hDWTcN+/DUyhXpdK+SeAg7zYV8oVWfiEAQyOjVh3aRE866ykIV8qq6SGuYlVd9V5F0CLtFRXOiGoEgkFEnzyPB7/LsU6xCYqGrhtn3EX+chEPY8O6QtQgEgYxagUSDrTz7lIexfjfkwER2nRM2Fchb6gZNBIJARjxtt0H7KM89vd3p7zloUS7mWUSyIWy8IusmBIJARpw8j4WCPPf0oiSqLTr92JJfkmgIG5+RtQqBIJCR934EG3nuaU+m//KUQJrifyPREDZejXUIgSCQYfe+yb4GVl8ZGsb627tHlyQukDe0d0g0hL3Px+r7GAJBIMMcXVLJMzcQ0eA7FTHtAiWQz5JgCPsLJFmHQBDIEIHEgnfxzA2vxvqsS13CQ4Ih7D+MlbwPgSCQoRPowcd55oarkNvVBPqvSTCE/Zfzxv+IQBDIMIcnvsgzN1yB/Fom0BPrSDCEAy6a2oFAEMgwAjnMMzd6Z3ponausKfEPEgzhhHOxEAgCOZ0qffUYnndGK7H+oY4w2UeCIZxwXzoCQSDvmUBv1CbzvDOpQIL71BxINwmGcEJU7dTHIRAEcnL/W0T7MM87k0n0ULdLvZmRXAiHnMx7AQJBIJyBlbXd6McRCIFAsojaXEViyfDqVBlayodASmLLfTzvDAXCEBbBEFYWJ2Z3auNILJmFmtxGIFYZwmqK7ye5EEyiZ/FuCXkzI8EYTkoD+WonBJKFSXSW8RIs48325UShbhKM4aWhRxCIlZbxspGQYCNhdjenRUJ/J8FkeMorArHGRkKOMiEcIpBn83i/xLMkGMPHY6xGIBY6yoTDFAmHHKZ4f/4Esux+EozBiIXuRSAWOkxRljZ+jgRDcJx7Vu+YqCPBGBWItgSBWKatPuf61KbkhVwoRdi+AtnY9/G8JaaI9nESjLG4PLpiJgKxxoVSZRvuu/DdO9Hj20kyhI1XYB125RlOeTW0Ma0zn22EQDJabr391JkwLYkHSTSEjfeArMq/QIKrSDRpr8BaiUCs0lbLHjwlkI3Ja0k0hH3nP+I3510gseDNJJo0jzCJhW5EIJZpq2tPPsjKvfoEGcZKkGwI+91EmHjryqa+i/ItEHUgoAxjvUWySXlJ6FuljdpUBGKJtkpUNmoT3nu0cUv8CRIOYcP5j4irQMiYfoSEk3JSqs93+yAQwxsInxjyMMua+j5JwiHsN3yVCBRKIP5IKEDCSXVSVluMQCxz3P4nhzxMTdfPlGGs10g6hH2Gr+I9n9muTypYBdLwk0nS4XpIOqMuCe2qaP752QjEEgsdXtN07cxhH6hMNt5C4iFsNHx1j6vASLm/nMQz6pLQZYVoGwRiaKn1LSM+0BOT6YlDJB/C+kt348cqW5NTCy0QNTEsEjlG4hnxjbZfXcKFQCwRh4ZMng+pQpriPyQBETaoPn7hMgne2LJfkHxG3E/ws0K1CwJJe/L8h6M+1Ipm/WyZC9lHEiKsPPdhhurj9CqEuZDhb7Q7eRwGAjH95VEpz1NVNCe/RCIiLLxx8BaXyVBjxySiIUt3bypkmyCQtNrqS2k9XDn+IUoyIix478dWtaLQbAJRK1dkvH8byejkyqvWEVfzIBCzzVNF036487fEZ7A7nbDaveflG+OlLpMypyFYyn3pgyt5jvsiy0sK3R4IJLVd51ds0GYYesAyFPBVEhNhoYnz77pMjj8S/C7j6aHbzNAWCCSFtmoIfTWjhywTko+RnAgLVB9rXBZB3urWOHgy9k9maQcEMmql+FjGD1mtyiprSmwhSREmrjz2yM2aF1hFIGrfg0hkjwMrj13zX7x/CgKxhDy2ZO10gAXb+qZJJ91NsiJMWHl0lm0aKHJZDG/DiiJ1gZKDJmI75Kpfj5naAIGMWCXuLoncNy2rD1t10sHOStIizLPiKnHl5n6/y6L412l+NUnpAHnE50Q1r9mePwIZ/lZI9XKTm9K7uX82EiHMIo+yTckFLoszJxZcYGeJKHn41wXnmfHZI5Ch8ihdv3x2Th/6ieW9iT0kMaKww1b9PpdNOJHI7DecpYatzFh5IJBhl+vuMbxcN13UDW/yBthKMiMKMGG+24pzHqnMiaixZztNmJttzgOBjLypU92gmdeH/4VWfSK3GBJ5vp72+fk74lNcNkWtUJLzoZ63wdvsc2ZabYVAPvh2wdJWbWLBGqF8Y6JG9or0keCIXO4wn9uUuN3lEOSN8HZL7liPBt/wxYLfttbQoWMPsuzzRbUaUzSESORSkchfSHZE9iMh69GPlbgchjrqQ63Ft1DVsVmtKrPe3JMj5zv+4l+34lLTNYgMMSyWuZEDJD0iC1VHl3yWlprxYMR8oQ4b9EeDS9WVr2a+jtYfC91Y6IMREUhK+zsOFOLu+bSo3KmfI8MNmkx2dpMICQN3efTJ3NpPP7UpeaELBlF3ZshY9U/VsIOZhkD80WU/KdRtgggkvXtX/NGQJrcJnmOZxhkUSUvyDqlKDpIYidQqjkTISkeS5JvBI1AiwVAhKxIR2VFfLBS0wiS50wUiQ1UHZSn1HZYSx/tZ2qqfJSJZJHdUrxaZDJAsidOk8aZEWJ36rM5cQxEpikTOKFKnpIpMwpIg3szDfo431QGQvpj2lVHvxEYgha42BqStVpdEtUWlrY+eZasPfvlG/TyRSK0kjSe5Ntexk+IdUmn8QV4qbjDTtbNWRV2X649pN0ji+IPauJfNTYDqa0p8s5DXziKQ1K6blXZ6UirD2vKIdp5zxnZPnK/1NUko95S3JFaq2+QkwRyhUrG8JN6QOCrtuV3iGfn9vdLOS+ZtSc4k5eeWy6MrZnpj2hJvLHSvDHU9I4lluxp2Uktsh112O/h38t/IW6v6NyoJ+TZoH3HCs7KUQAYri+AR+XWr/LrSF1t2T0k09LWcnVtldSp1fazaNFa5uf9iwhqh5i/UkCWfXpNWKzKkoeZRVNhueMNIjmnUxl7RqF1s5lBzTern5NMLAAAAAAAAAAAAAAAAAAAAAAAAAAAAAAAAAAAAAAAAAAAAAAAAAAAAAAAAAAAAAAAAAAAAAAAAAAAAAAAAAAAAAAAAAAAAAAAAAAAfiF6pjd0/vXrKEU/dxWYO9XM6vq2qVo/p9dRNVqF+z6fXpO3UWnpWIlZxQf/aKy4mrBHx+vlT9MbKsXx6h2Gfu7aozVPztf2eGm2fu3rlfndgq/x6ZJ87MLBverVuhThQVONzQlu1X1JTvM9dE2hzVy/fPz3wX9JO26SdDovkX3//Mxn8M/k7iZfkv1317r+paZ9Rdymf+tySjF4+syvsXdJT7723O+xb3b3Gu11+PSp/9kbXGq9OWDTC3oGusO+I/LpV2nNld9iv9awt+Vq8wVvkmA93d3HgPEkutZJMnpTkss8qknCiQNpnffOCNnfgGyL1p6S9DmTreamvtd9d/bT62up7kPIzFEa4dKokkxtEFH+QBNNBsnVeiFD2dYe9T/au8dV2R8rPs1fZXLr0rLaimkUijtVWqiycKBDdUzdBEvx1Es9LhXE858/PHXhTvtf/k89Glfre6CDFdmquOFuSxle71vjC8uubJFHi9EpFVZ699SWL1JClZT/kR2Z965w2d80dkhwO2k0adhOImruQiuDuweHDAj1H+Zwcle//I/WzoIjhUePh3Wt8Iak2ukiWxOjhOygyuUPmUM6xlDjUnIYkhG47i8MOAlGLFPZ7Ag9IJZA0zTOVn0WGzf6T4a3Thqk2lF0oieCnkhT6SIpE+kNc3m41Z2J6kbR5Al/N5ng5AsnREIiunyFv+98cfOs36XM9UZHU3KB+VscOVenamT31/qVUHESW5koOqKFP8024yuoaeXP8i5PEYVWBtBct8UpbbbTK8xWRbDrgqfY7TR69EV+JdPotJD4i+/Mkvr8kwn5zrIhUyzOlk/c5UR5WE4jMc3xLKo83LPec1c/srvm2U+QhE6G3S9VxnGRH5DD6esL+QME+5B2lSydKx37CqeKwkkDUxLQsnf2j5Z+3O/CcnSfZ1SS5dOznSW5EHoe1ntDDpRPz+kE/dEntRVJ1tDpdHlYQSEdRtVsS78u2eebu6l2dnjqP7eQhG8JkaGE3SY0owNLf1r4G70X5WrkzQ4at9iAP8wukfUZgth2XUcsqrQ41l2Ob+Y5wiU86cSfJjCjgkt898forZuQ8IcnbbCfiML9AZM7gSmmrXts+e3d1fP+MJfOtLo+e+jkLZBghQQIjTFCJdPasLZ2do4RUW4Q8rCGQd0Xfa/vnLxKxciXSu9bvRx6E2SSS9fO1OouvnyZDIbsRhvkFouY87L77//3DWVacEzkx58GwFWHKZb67+yIl07LzNlvxvbMlIW1BFuYXiNpZbqsJ89T3iuy20s51daS6GnMmWREmji3qzLXMk5I78BiisIZA1DJXp7aDOgDSOvs8fGtIUIQFjkB5LLONZ3I0CZKwhkDURjunt4WcwfYds8uju97/XZITYaF9Il81OhwyQ95oE0jC/AJRR31Ycod59ifVj4tI55h3o+CcUnaYExYTSMLQ8l6RRxRBmF8guqadyRzVeybVt6pnYjZ5qIMRZd5jG0mJsJxE1vii6U2cuwNfIhlZQyAij6W0w3tDhl5vNt9+D+8tJCPCwiuzvpTyqiu7XDdrd4GolUcyedxFOwxZldXd8ZGlU80ijxPXznp7SESEla/NTWlVlnS+H5KErCEQEf1PaYMRV2X9wjQT52HvL0lChNWjp973ww8ep5V7qWUi8hAJyPwCOVF9OPcY/RQE0n/go0suNEP1IeX/MRIQYYM4JLcaTviAZbs1t5B8rCEQSZAhnv9oy3oD9xS++vAtJ/EQ9qlCvLeMvJrHHXiNxGN+gZw4HYC5j5TmQuTemoKtvGrwTmLug7DZiqzX1IrCYcbTaz9J0rGGQNo8tYt59qmFrCisLtjKK7nxjaRD2C3iEe8nhxEItwtaRSBSKdbz7FO+xTBSsOErWT9PwiHseIvhMJPn7Dq3gkDU8lRpqzd59ikPY72lbtDMtzzUDW/S0d4i4RB23J3+nsn0Nk/1tSQbawhE5j5u5LmnfUbWTfkfvvLdTLIh7Bpyl821p5KSJ/AgicYaApGhxpU897SX9K4qwOqr1SQawsZVyIOnJ6XtJBqLVCBygRLPPe1DFg/l/cj2Nb7DJBrCvquxvNtPnOQqm61knPgdEo35BXKwqGYmz9xYdLhrP5a36iNS8nGSDGHzu0LeSW4ou9DV7qn5HAnGGgLZX1SzhGdu9IDF6ro8Dl9dT5IhbC+Rtd7PqbOvbifBWEMgsvrqXp654XmQ+/M2fBX23U+CIex/Qq/3dlebO/BrEoxFKpDp1at55kbvCan+Yx73fzxLgiEccMT7r1VSWkeCsUwF8jeeueEKZEceh7D+ToIhHHCsyTolkH+QYCxTgRzlmRs/FyuPx7d3k2AIBwjkH+qtdj8JxjIVyADP3Ph96fkbwuLec8IRK7H2q7fabhKM+QWiV2pjed6ZhT5LG5fzdtpZNY7kQjhEIN1qE+Fxkov5BdLrqZvM887wZF65hCvX7ZSIVVxAciEcspnwOALJdIOap+6j+RCIOhCQ551ZHPHUXYxACCKLAmEIK8MKpDjwYQSCQBjCIhw6hBXYR3IxHj0zlp6PQBAIk+iEAw9U3Mcy3kwnZqtWj0EgCIRlvIQjl/HKBqsGkovh2+4O52tpKAKxlEB2kGAIB1QgDXKUSfWvSC6GN6e9iEAQyDA70f9IgiHsHnJp2q9UBXIbycVwBfI4AkEgQ28j9N9HgiFsH/W+2+Q629rPklwMn690FwJBIENO413rryPBELYfwqr3fdalNldxoZTBjWme2v+DQBDIEIHUz/kYCYaw+4VSas8Tp7waH74a0ItvG49AEMjwV9p6D5FoCBtPoP/t9FNef0mCSVsgjfm8YxuBWEsgssRxFYmGsHEF8suTH/a2oppFJJh0BVITRCAIZMSJ9DW+m0g0hF2jt75k0anjFzx1E+RMrDhJJvU4WFQzE4EgkJHoi5RMkzL/LZINYcPhq7geWfje4fs2d83vSDIp7/9odeUZBGItgby7oXAtCYew4Q703w35sB9wV19FkklRIJ7AdxEIAklhP0g1CYew3/CV76qhp4hq2pnyZv0KiWb01VcqmSMQBDLqybzh0omci0XYKsLeV3RdO3P4O7c9NTeRaEa9GvVhVwFAINYTyIlhLL9G4iFsc3yJLA4Z+Y1J9jXIG3YnyWbEuY9/7nPXFiEQBJIqyQ1lF3aFff0kH8IG1UfnkMnz9yPLU39AshlBIO7qp10FAoFYUyCDVUi97+ckIML6hyf6fzDqh7294ntnyzDNXhLOkOrj9U5PnQeBIBAjVQhzIYTFV17t1Zsrzk7pA9/mqb6WhDPk4MSQq4AgEOsK5MSKLN/NJCLCsiuv1vqvTesDL3MhEZLOyerjVbXZEoEgEMMrsmTliowht5KMCAseWxJJ+wOvJovZnT5Yebwt8SlXgUEg1haIojfiK+G+dMJqu87jDV5jC4fkzbuKZbuBe10mAIFYXyCDp/SGvbeTmAjr3Pnhr8roAy9v3484+cpavWr1GASCQLIrEd+fSE6E+Zft+h7JfOxWxv4lkW5yoDwOHigOfNhlEhCIfQQSr58/RTrnLpIUYeKhq016Y2V25n07PrJ0qsyH7HLQsFVv+4zAbJeJQCD2EcjgfEjU7xGJdJCsCBNWHruS4dKpWf3AdxRVu9VbuRPOupL7URa4TAYCsZdABpf2Rud41SQlSYswT/gO9q4tcefkA992Se1l+92BDjtvFpSd+Ne4TAgCsZ9ABiUS8c+TTVq9JC7CBJVHR3fMNyunH3i1G9uOw1kijx5ZMDDPZVIQiD0FMiiRtaWz1ZsfSYwo5LCVGlbNywe+s/j6aZJsN9tor0f7/uKvz3KZGARiX4EMzonIsIF05JdJZkQB5LFZ3aCZ1w+8OjNLDhf8rfUPSAxsMHNiQSDOEMigRBr9k2U461mSGpHHXea/TfmMq5zMi3hqF8vEc9KKR7O3uQN3q4u0XBYAgdhfICeHtML+W2XD4RskOCKHkeyp9y42xQe+rfjrl0hCXm+hIau/y2T5lS4LgUCcI5DBaiRc4pMVWhtJdEQOqo718UjpJab70KujTyTaTLxENyEnDX9Pr9TGuiwGAnGWQAY38er6Gd313m+KSI6S+IjMj2T3tmV8NEnOE523dpK83QdFJEfNtDy3zV39K6slEATibIH8L+/uXH9ADTuQCAkDu8qPyufnR3qDd5JlPvQdpUsnyh3r31ErnAp4f3lcvv99Kvm6LA4Cca5ATp9k71rjv1uSwRESI5FSxRH2f0cPl0607IdeDRepzXmSzFdKMj+Wj8lxiZh8rxpVDblsAgJBICf7lJxR1B0uuU6SxPMcD0+8b0nuMak4VvbU+6+Rz8lYl504OvMb57a7A9UyF/G4uqQpi5XGIRHGKql4bjpcdMO/uGwIAkEgw5GIVVwgCeN62Yj4lEyOtpNEHTkp/qp8Bh6X1XvV+l/nnetyCh0zlkzfX1TzlcE5E3f104ObE92BTvm1XwTzztBjRgKHRRbbZe/GM+qeDvm3SzrctR9zwrNCIAgkNaHMKZZEEuiu992j3kRFLNskyRxSb6YkW8sK4h1pv35Z2t2pNv1JPC3tG+xe6/tKT7h0uguGKdNlf0Z3ceC8Xk/dZLPcyYFAEIil+5ReNaZnfen5atcxYY3ojpSfp65DxgiAQBAIAAACQSAAAAgEgQAAIBACgQAAIBAEAgCAQBAIAAACQSAAAAgEgQAAIBACgQAAIBAEAgCAQBAIAAACQSAAAAgEgQAAIBACgQAAIBAEAgCAQBAIAAACQSAAAAgEgfBJAgAEQiAQAAAEgkAAABAIAgEAQCAIBAAAgRAIBAAQCIFAAAAQCAIBAEAgCEShN1aO7YnO8Zo5ktHLZx5bV/Kh7kj5ebqunUnvAkAghAkE0r/2iou71nh1q0R32PtOV9jX0RX2/nf3Gt+j3fW+O3vCvvn6zqpx9DoABEIgkPQj7DsmclkvYvn3RGxOMT0QAIEgEARirFJZ420RqXw7uaHsQnojAAJBIAjEQPhe71nje6gnXDqdXgmAQBAIAjEwd+J7S4a4nkQkAAgEgSAQw3MlXfX+/6tHFo6nlwIgEASCQIyIZHdvve8qeioAAkEgCMTIRPvbMrS1XNerxtBjARAIAkEgRkTyglQk/0avBUAgCASBGJlkP9BT772MnguAQBAIAjFQifh61a52ei8AAkEgCMTA5Lp3oKfefw09GACBIBAEYmzzYcQ/j14MgEAQCAIxcmhjT3fMN4ueDIBAEAgCMTSxfixW+q/0ZgAEgkAQiJHhrD9zBwkAAkEgCMTo6qwQPRoAgSAQBGJEIP/sqZ+zgF4NgEAQCAIxMqn+P3pr6Vn0bAAEgkAQiJEjT75PzwZAIAgEgRiJvmPrSj5E7wZAIAgEgaRfhdT7fkPvBkAgCASBGDnq5A31zOjhAAgEgSAQI5dRPUAPB0AgCASBGImk/td559LLARAIAkEI6cdafx29HACBIBCEYGQuZAO9HACBIBCEYOg+dZb0AiAQBIIQDEVP2H8rPR0AgSAQwsgZWc/S0wEQCAIhjNwXclTX9TPo7QAIBIEQ6Q9jrS2dTW8HQCAIhDBytMk36O0ACASBEEZuLPwxvR0AgSAQwsg8yHP0dgAEgkAIIyux/kFvB0AgCIQwsqGwi94OgEAQCGHoeHd6OwACQSCEodAbK8fS4wEQCAIh0o54/fwp9HiALNJdHDgPCWQW+6dX5zwxqeSHBDKcB4mUn0ePB8gietXqMUggs9ArtZwPjeitpWchgQyHsPSqMfR4gCwjb9CvIwKD4a7O2+SsmghGBIY3Er5OTwfIAfvcgcPIwPDw1dG8DTfKoYCIwLBADtPTAXJTgbQiA6MVSOClPArkJURgeBlvKz0dICcVSPVKZGC0AgmsyptA1vhWIQPDGwn/QE8HyEUF4gncgwyMRZs7sCKPFcgKZGD4NN576OkAOaDdHahGBoYrkJp8tVNPva8GGRi+1raang6QkyGs2iJkYLACKf76Jflqp0RsTjEyMLiJsMFbRE8HyJlEAvsRQtrVR3u+26k77G1HCOke5e7dTw8HyOU8yPTq3yOFNAXiDjyV73aS5ahPIYW0h69+Tw8HyKVAimqWIIU0h6881XV5F8hafx1SSHsJ7xJ6OEAO6Zmx9HwZxhpADKnvQO/11E3Odzv1NvonsyM9LXkM9KwvPZ8eDpDrKsQdeAY5pLyB8NlCtZO6nhU5pDz/8Qw9GyAPtHlqvogcUot2d/WXC9VOXfW+LyOH1KI37P8iPRsgD+iztHEymX4QQYxafXTqxbeNL1g7RRaOl6GZTgQx6vlXB/WdVePo2QD5qkLcgTuRxKjLd+8q+JxV2H8Xghh19/md9GiAPHJk1rfOkSqkB1GMWH30Hp35jXMLXi3+dd65cjZWL6IYce6jR66wPYceDZBnOBvLHGdfjQZnY3H2FYBZqxDmQoZuHOwwQ/VxehXSFfZ1IIxh5j6oPgAKOBfiqV2MNN6/8ipgugP5ZC4kgDDet/O83ruYHgxQYGS8vxFxnJw4f8Gs7SR3XbyAOP5346CvkZ4LYALaZ9RdKkNZfcgj0H+wqGamWdspGb18piTOfgTi7UuE/ZfScwFMU4XUBBwvEDknzOztpM574tBEf4AeC2A6iVQ/4eDq40mrtJMsXX3Suct2fU/QUwFMSEfp0okylLXFgauuth7y1k6ySjvpDd5JUolsdaBAtujh0on0VACT0ll8/TSRyG7nVB7Vrxy6pPYiq7VTX4P3IpHIKw6aNN/dFymZRg8FMP1Qllx9K+dAOeCo9kMikBlWbad4/RUzJLkecsBR7Z1cVQtgIdouqb3MzpsM1WbB9hmB2VZvp561pbPtvcnQd1D2e1xGjwSwGB1F1W55S99lw2Gr3arKsks7qbdzNcRjw2GrXb1rS9z0RACrSuQjS6dKwt1ko9VWm9U8j93aSc0PqElmG6222pQMl06lBwJYHN1TN0EqkYdtII/fqP8vtm2nxsoJcrjgb6xfefgfVv9f6HkANkIS8HUikrgFJ8vjUkVVOaWduuv9VfIGH7dg1RHvDpdcR08DsCmdnjqPTECHLTRZXq9+Zqe1k5oXkYRcb6HJ8jDzHQDOqUY+L2/1r5pYHK+1FdUscno79daXLJILqV4z8YVQr/as9X2eHgXgMNR8Qpu75g4zLfdVP4u6rtfOcx1pt9OJuZE71ZJYMy3PlQrpDuY6AJyeoGZp4+QwxhsKuYNdKqI9EjfqxbeNp0VGaKfIwvHdYf+Nkrz3FHJHufwMN+g7q8bRIgBwKkHp+hltRdWfEJE8mpf71uXechmqekx9T/W9aYHU20nmGz4hw0eP5eO+dXVvuXyfR9X3pJ0AINWq5BpZAfUzdVihVAdvZ6HKeFu+3jb1NdXXptrITlXSU++/RoaTfiaVyTa5tOrtjIWhvoYc9qi+pvraVBsAkBG9nrrJUpVcLVXDrfs9gQfl9zERwg6RwV75tUt+Pa7i3d+rP9sx+N+4Aw8N/puimk/L/57Ck8wt8fr5U7rX+j8td27c2rPG95BIICYVxA6pIPaKGLokjr8bXYN/pv5u8L/xPaj+TVd9ydW9jf7JPElIhf8PYHKfcWFjv8MAAAAASUVORK5CYII=;" vertex="1" parent="c9L9A2oVvK1UvMmjNTB7-1">
          <mxGeometry x="710" y="690" width="90" height="90" as="geometry" />
        </mxCell>
        <mxCell id="4PSMBNqFyeV-23smEcSd-21" value="Slack" style="text;html=1;resizable=0;autosize=1;align=center;verticalAlign=middle;points=[];fillColor=none;strokeColor=none;rounded=0;fontSize=14;fontStyle=1" vertex="1" parent="c9L9A2oVvK1UvMmjNTB7-1">
          <mxGeometry x="730" y="790" width="50" height="20" as="geometry" />
        </mxCell>
        <mxCell id="4PSMBNqFyeV-23smEcSd-22" style="edgeStyle=orthogonalEdgeStyle;rounded=0;html=1;labelBackgroundColor=none;strokeWidth=1;fontFamily=Verdana;fontSize=12;" edge="1" parent="c9L9A2oVvK1UvMmjNTB7-1" target="4PSMBNqFyeV-23smEcSd-20">
          <mxGeometry relative="1" as="geometry">
            <mxPoint x="491" y="300" as="sourcePoint" />
            <mxPoint x="629" y="310" as="targetPoint" />
            <Array as="points">
              <mxPoint x="540" y="300" />
              <mxPoint x="540" y="735" />
            </Array>
          </mxGeometry>
        </mxCell>
        <mxCell id="4PSMBNqFyeV-23smEcSd-23" style="edgeStyle=orthogonalEdgeStyle;rounded=0;html=1;labelBackgroundColor=none;strokeWidth=1;fontFamily=Verdana;fontSize=12;exitX=0.835;exitY=0.5;exitDx=0;exitDy=0;exitPerimeter=0;" edge="1" parent="c9L9A2oVvK1UvMmjNTB7-1" source="c9L9A2oVvK1UvMmjNTB7-8" target="c9L9A2oVvK1UvMmjNTB7-18">
          <mxGeometry relative="1" as="geometry">
            <mxPoint x="481.37750000000005" y="300" as="sourcePoint" />
            <mxPoint x="719" y="300" as="targetPoint" />
            <Array as="points" />
          </mxGeometry>
        </mxCell>
        <mxCell id="4PSMBNqFyeV-23smEcSd-9" value="３" style="rounded=0;whiteSpace=wrap;html=1;fontSize=22;fontStyle=1" vertex="1" parent="c9L9A2oVvK1UvMmjNTB7-1">
          <mxGeometry x="619" y="280" width="40" height="40" as="geometry" />
        </mxCell>
        <mxCell id="4PSMBNqFyeV-23smEcSd-24" value="６" style="rounded=0;whiteSpace=wrap;html=1;fontSize=22;fontStyle=1" vertex="1" parent="c9L9A2oVvK1UvMmjNTB7-1">
          <mxGeometry x="630" y="715" width="40" height="40" as="geometry" />
        </mxCell>
      </root>
    </mxGraphModel>
  </diagram>
</mxfile>
